<svg xmlns="http://www.w3.org/2000/svg" viewBox="0 0 1200 760" role="img" aria-label="Purple Peacock stage show illustration">
  <defs>
    <linearGradient id="bg" x1="0" y1="0" x2="1" y2="1">
      <stop offset="0" stop-color="#301153"/>
      <stop offset=".45" stop-color="#13041f"/>
      <stop offset="1" stop-color="#050207"/>
    </linearGradient>
    <radialGradient id="spot" cx="48%" cy="20%" r="55%">
      <stop offset="0" stop-color="#ffe7a6" stop-opacity=".9"/>
      <stop offset=".32" stop-color="#b34aff" stop-opacity=".45"/>
      <stop offset="1" stop-color="#000" stop-opacity="0"/>
    </radialGradient>
    <filter id="blur"><feGaussianBlur stdDeviation="18"/></filter>
  </defs>
  <rect width="1200" height="760" fill="url(#bg)"/>
  <rect width="1200" height="760" fill="url(#spot)"/>
  <g opacity=".45" filter="url(#blur)">
    <circle cx="160" cy="170" r="150" fill="#9a4dff"/>
    <circle cx="985" cy="170" r="170" fill="#ff3fa7"/>
    <circle cx="595" cy="610" r="180" fill="#f6c760"/>
  </g>
  <g stroke="#fff6d1" stroke-width="6" stroke-linecap="round" opacity=".75">
    <path d="M120 184C285 72 458 68 600 191C742 68 915 72 1080 184" fill="none"/>
    <path d="M187 256C327 167 470 168 600 273C730 168 873 167 1013 256" fill="none" opacity=".55"/>
  </g>
  <g transform="translate(0 24)">
    <path d="M502 598C520 432 566 316 600 242C634 316 680 432 698 598Z" fill="#0b0611" opacity=".9"/>
    <path d="M600 250C548 338 527 444 536 590H664C673 444 652 338 600 250Z" fill="#f4d37b" opacity=".16"/>
    <circle cx="600" cy="310" r="48" fill="#fff2c4"/>
    <path d="M422 611C487 548 544 545 600 616C656 545 713 548 778 611" fill="none" stroke="#fff2c4" stroke-width="12" stroke-linecap="round"/>
  </g>
  <g fill="#ffffff" opacity=".75">
    <circle cx="186" cy="468" r="3"/>
    <circle cx="238" cy="394" r="4"/>
    <circle cx="925" cy="420" r="4"/>
    <circle cx="1010" cy="496" r="3"/>
    <circle cx="810" cy="258" r="3"/>
    <circle cx="391" cy="275" r="3"/>
  </g>
  <path d="M0 650C248 600 407 628 600 661C793 628 952 600 1200 650V760H0Z" fill="#060208"/>
</svg>
